<mxfile host="app.diagrams.net" modified="2023-07-19T08:59:06.003Z" agent="Mozilla/5.0 (Macintosh; Intel Mac OS X 10_15_7) AppleWebKit/537.36 (KHTML, like Gecko) Chrome/114.0.0.0 Safari/537.36" etag="UFckRnYLPfExVqglIWQn" version="21.6.3" type="google">
  <diagram name="ページ1" id="ufHb-MsVIr9y4oWLRNz8">
    <mxGraphModel grid="1" page="1" gridSize="10" guides="1" tooltips="1" connect="1" arrows="1" fold="1" pageScale="1" pageWidth="827" pageHeight="1169" math="0" shadow="0">
      <root>
        <mxCell id="0" />
        <mxCell id="1" parent="0" />
        <mxCell id="ok8GkhnikJj3MsAVjQlx-2" value="&lt;b&gt;&lt;font style=&quot;font-size: 15px;&quot;&gt;Transformer (Pretrained)&lt;/font&gt;&lt;/b&gt;" style="rounded=1;whiteSpace=wrap;html=1;strokeWidth=4;fillColor=#eeeeee;strokeColor=#36393d;verticalAlign=top;" vertex="1" parent="1">
          <mxGeometry x="300" y="480" width="640" height="190" as="geometry" />
        </mxCell>
        <mxCell id="ok8GkhnikJj3MsAVjQlx-1" value="&lt;b&gt;Prefix&lt;br&gt;(Translation)&lt;/b&gt;" style="rounded=1;whiteSpace=wrap;html=1;strokeWidth=2;fillColor=#f5f5f5;fontColor=#333333;strokeColor=#666666;verticalAlign=top;" vertex="1" parent="1">
          <mxGeometry x="230" y="430" width="140" height="170" as="geometry" />
        </mxCell>
        <mxCell id="ok8GkhnikJj3MsAVjQlx-3" value="" style="rounded=0;whiteSpace=wrap;html=1;fillColor=#FFFFFF;fontColor=#333333;strokeColor=#666666;strokeWidth=6;" vertex="1" parent="1">
          <mxGeometry x="880" y="535" width="30" height="100" as="geometry" />
        </mxCell>
        <mxCell id="ok8GkhnikJj3MsAVjQlx-4" value="" style="rounded=0;whiteSpace=wrap;html=1;fillColor=#FFFFFF;fontColor=#333333;strokeColor=#666666;strokeWidth=6;" vertex="1" parent="1">
          <mxGeometry x="827" y="535" width="30" height="100" as="geometry" />
        </mxCell>
        <mxCell id="ok8GkhnikJj3MsAVjQlx-5" value="" style="rounded=0;whiteSpace=wrap;html=1;fillColor=#FFFFFF;fontColor=#333333;strokeColor=#666666;strokeWidth=6;" vertex="1" parent="1">
          <mxGeometry x="770" y="535" width="30" height="100" as="geometry" />
        </mxCell>
        <mxCell id="ok8GkhnikJj3MsAVjQlx-6" value="" style="rounded=0;whiteSpace=wrap;html=1;fillColor=#FFFFFF;fontColor=#333333;strokeColor=#666666;strokeWidth=6;" vertex="1" parent="1">
          <mxGeometry x="710" y="535" width="30" height="100" as="geometry" />
        </mxCell>
        <mxCell id="ok8GkhnikJj3MsAVjQlx-7" value="" style="rounded=0;whiteSpace=wrap;html=1;fillColor=#FFFFFF;fontColor=#333333;strokeColor=#666666;strokeWidth=6;" vertex="1" parent="1">
          <mxGeometry x="650" y="535" width="30" height="100" as="geometry" />
        </mxCell>
        <mxCell id="ok8GkhnikJj3MsAVjQlx-8" value="" style="rounded=0;whiteSpace=wrap;html=1;fillColor=#FFFFFF;fontColor=#333333;strokeColor=#666666;strokeWidth=6;" vertex="1" parent="1">
          <mxGeometry x="590" y="535" width="30" height="100" as="geometry" />
        </mxCell>
        <mxCell id="ok8GkhnikJj3MsAVjQlx-9" value="" style="rounded=0;whiteSpace=wrap;html=1;fillColor=#FFFFFF;fontColor=#333333;strokeColor=#666666;strokeWidth=6;" vertex="1" parent="1">
          <mxGeometry x="530" y="535" width="30" height="100" as="geometry" />
        </mxCell>
        <mxCell id="ok8GkhnikJj3MsAVjQlx-10" value="" style="rounded=0;whiteSpace=wrap;html=1;fillColor=#FFFFFF;fontColor=#333333;strokeColor=#666666;strokeWidth=6;" vertex="1" parent="1">
          <mxGeometry x="470" y="535" width="30" height="100" as="geometry" />
        </mxCell>
        <mxCell id="ok8GkhnikJj3MsAVjQlx-12" value="" style="rounded=0;whiteSpace=wrap;html=1;fillColor=#f8cecc;strokeColor=#b85450;strokeWidth=6;" vertex="1" parent="1">
          <mxGeometry x="315" y="480" width="30" height="100" as="geometry" />
        </mxCell>
        <mxCell id="ok8GkhnikJj3MsAVjQlx-13" value="" style="rounded=0;whiteSpace=wrap;html=1;fillColor=#f8cecc;strokeColor=#b85450;strokeWidth=6;" vertex="1" parent="1">
          <mxGeometry x="255" y="480" width="30" height="100" as="geometry" />
        </mxCell>
        <mxCell id="ok8GkhnikJj3MsAVjQlx-14" value="&lt;b&gt;Prefix&lt;br&gt;(Summarization)&lt;/b&gt;" style="rounded=1;whiteSpace=wrap;html=1;strokeWidth=2;fillColor=#f5f5f5;fontColor=#333333;strokeColor=#666666;verticalAlign=top;" vertex="1" parent="1">
          <mxGeometry x="270" y="490" width="140" height="170" as="geometry" />
        </mxCell>
        <mxCell id="ok8GkhnikJj3MsAVjQlx-15" value="" style="rounded=0;whiteSpace=wrap;html=1;fillColor=#f8cecc;strokeColor=#b85450;strokeWidth=6;" vertex="1" parent="1">
          <mxGeometry x="355" y="540" width="30" height="100" as="geometry" />
        </mxCell>
        <mxCell id="ok8GkhnikJj3MsAVjQlx-16" value="" style="rounded=0;whiteSpace=wrap;html=1;fillColor=#f8cecc;strokeColor=#b85450;strokeWidth=6;" vertex="1" parent="1">
          <mxGeometry x="295" y="540" width="30" height="100" as="geometry" />
        </mxCell>
        <mxCell id="ok8GkhnikJj3MsAVjQlx-17" value="&lt;b&gt;Prefix&lt;br&gt;(Table-to-text)&lt;/b&gt;" style="rounded=1;whiteSpace=wrap;html=1;strokeWidth=2;fillColor=#f5f5f5;fontColor=#333333;strokeColor=#666666;verticalAlign=top;" vertex="1" parent="1">
          <mxGeometry x="310" y="550" width="140" height="170" as="geometry" />
        </mxCell>
        <mxCell id="ok8GkhnikJj3MsAVjQlx-18" value="" style="rounded=0;whiteSpace=wrap;html=1;fillColor=#f8cecc;strokeColor=#b85450;strokeWidth=6;" vertex="1" parent="1">
          <mxGeometry x="395" y="600" width="30" height="100" as="geometry" />
        </mxCell>
        <mxCell id="ok8GkhnikJj3MsAVjQlx-19" value="" style="rounded=0;whiteSpace=wrap;html=1;fillColor=#f8cecc;strokeColor=#b85450;strokeWidth=6;" vertex="1" parent="1">
          <mxGeometry x="335" y="600" width="30" height="100" as="geometry" />
        </mxCell>
        <mxCell id="ok8GkhnikJj3MsAVjQlx-20" value="&lt;b&gt;&lt;font color=&quot;#007fff&quot;&gt;name Starbucks type coffee shop&lt;br&gt;Input&lt;/font&gt;&lt;/b&gt; (table-to-text)" style="text;html=1;strokeColor=none;fillColor=none;align=center;verticalAlign=middle;whiteSpace=wrap;rounded=0;" vertex="1" parent="1">
          <mxGeometry x="470" y="690" width="210" height="30" as="geometry" />
        </mxCell>
        <mxCell id="ok8GkhnikJj3MsAVjQlx-21" value="&lt;font color=&quot;#00cc00&quot;&gt;&lt;b&gt;[SEP] Starbucks serves coffee&lt;br&gt;&lt;/b&gt;&lt;b style=&quot;&quot;&gt;Output&lt;/b&gt;&lt;/font&gt; (table-to-text)" style="text;html=1;strokeColor=none;fillColor=none;align=center;verticalAlign=middle;whiteSpace=wrap;rounded=0;" vertex="1" parent="1">
          <mxGeometry x="700" y="690" width="210" height="30" as="geometry" />
        </mxCell>
      </root>
    </mxGraphModel>
  </diagram>
</mxfile>
